HIERARCHY
ROOT Hips
{
  OFFSET 5.84602e-005 68.8428 3.50346
  CHANNELS 6 Xposition Yposition Zposition Zrotation Xrotation Yrotation
  JOINT Spine
  {
    OFFSET 0 8.597 -4.6522
    CHANNELS 3 Zrotation Xrotation Yrotation
    JOINT Spine1
    {
      OFFSET 0 7.8454 0.4098
      CHANNELS 3 Zrotation Xrotation Yrotation
      JOINT Spine2
      {
        OFFSET 0 9.7078 -2.1609
        CHANNELS 3 Zrotation Xrotation Yrotation
        JOINT Neck
        {
          OFFSET 0 21.8761 -0.4549
          CHANNELS 3 Zrotation Xrotation Yrotation
          JOINT Head
          {
            OFFSET 0 12.3537 3.3602
            CHANNELS 3 Zrotation Xrotation Yrotation
            End Site
            {
              OFFSET 0.0001 18.9506 0.5657
            }
          }
        }
        JOINT LeftShoulder
        {
          OFFSET 2.2086 21.1115 7.2329
          CHANNELS 3 Zrotation Xrotation Yrotation
          JOINT LeftArm
          {
            OFFSET 13.1193 3.0282 -4.8998
            CHANNELS 3 Zrotation Xrotation Yrotation
            JOINT LeftForeArm
            {
              OFFSET 27.4081 -0.0973053 -0.2375
              CHANNELS 3 Zrotation Xrotation Yrotation
              JOINT LeftHand
              {
                OFFSET 22.8641 0.0662994 -0.1369
                CHANNELS 3 Zrotation Xrotation Yrotation
                JOINT LeftHandIndex1
                {
                  OFFSET 8.8614 0.775009 2.4612
                  CHANNELS 3 Zrotation Xrotation Yrotation
                  JOINT LeftHandIndex2
                  {
                    OFFSET 3.3146 -0.808304 0.5841
                    CHANNELS 3 Zrotation Xrotation Yrotation
                    JOINT LeftHandIndex3
                    {
                      OFFSET 2.2628 -0.552002 0.3989
                      CHANNELS 3 Zrotation Xrotation Yrotation
                      End Site
                      {
                        OFFSET 1.6102 -0.4807 0.2612
                      }
                    }
                  }
                }
                JOINT LeftHandMiddle1
                {
                  OFFSET 8.9937 0.895004 0.2143
                  CHANNELS 3 Zrotation Xrotation Yrotation
                  JOINT LeftHandMiddle2
                  {
                    OFFSET 4.0984 0.0113983 -0.0242
                    CHANNELS 3 Zrotation Xrotation Yrotation
                    JOINT LeftHandMiddle3
                    {
                      OFFSET 2.2716 0.00689697 -0.0138001
                      CHANNELS 3 Zrotation Xrotation Yrotation
                      End Site
                      {
                        OFFSET 2.0404 -0.1441 0.0027
                      }
                    }
                  }
                }
                JOINT LeftHandRing1
                {
                  OFFSET 8.5234 0.597198 -2.0164
                  CHANNELS 3 Zrotation Xrotation Yrotation
                  JOINT LeftHandRing2
                  {
                    OFFSET 3.7188 -0.188293 -0.2328
                    CHANNELS 3 Zrotation Xrotation Yrotation
                    JOINT LeftHandRing3
                    {
                      OFFSET 2.1191 -0.106598 -0.1332
                      CHANNELS 3 Zrotation Xrotation Yrotation
                      End Site
                      {
                        OFFSET 1.8737 -0.2304 -0.0886
                      }
                    }
                  }
                }
                JOINT LeftHandPinky1
                {
                  OFFSET 7.9094 -0.601089 -3.4825
                  CHANNELS 3 Zrotation Xrotation Yrotation
                  JOINT LeftHandPinky2
                  {
                    OFFSET 2.2874 -0.477005 -0.6314
                    CHANNELS 3 Zrotation Xrotation Yrotation
                    JOINT LeftHandPinky3
                    {
                      OFFSET 1.6774 -0.349396 -0.4633
                      CHANNELS 3 Zrotation Xrotation Yrotation
                      End Site
                      {
                        OFFSET 1.4888 -0.4091 -0.3416
                      }
                    }
                  }
                }
                JOINT LeftHandThumb1
                {
                  OFFSET 1.833 -1.3875 1.3896
                  CHANNELS 3 Zrotation Xrotation Yrotation
                  JOINT LeftHandThumb2
                  {
                    OFFSET 3.4129 -1.121 2.5732
                    CHANNELS 3 Zrotation Xrotation Yrotation
                    JOINT LeftHandThumb3
                    {
                      OFFSET 2.2474 -0.804199 1.6192
                      CHANNELS 3 Zrotation Xrotation Yrotation
                      End Site
                      {
                        OFFSET 1.6527 -0.5689 1.1317
                      }
                    }
                  }
                }
              }
            }
          }
        }
        JOINT RightShoulder
        {
          OFFSET -2.2086 21.1115 7.2329
          CHANNELS 3 Zrotation Xrotation Yrotation
          JOINT RightArm
          {
            OFFSET -13.1216 3.0287 -4.9007
            CHANNELS 3 Zrotation Xrotation Yrotation
            JOINT RightForeArm
            {
              OFFSET -27.4081 -0.0973053 -0.2375
              CHANNELS 3 Zrotation Xrotation Yrotation
              JOINT RightHand
              {
                OFFSET -22.8641 0.0664063 -0.1369
                CHANNELS 3 Zrotation Xrotation Yrotation
                JOINT RightHandIndex1
                {
                  OFFSET -8.8614 0.774994 2.4612
                  CHANNELS 3 Zrotation Xrotation Yrotation
                  JOINT RightHandIndex2
                  {
                    OFFSET -3.3146 -0.808304 0.5841
                    CHANNELS 3 Zrotation Xrotation Yrotation
                    JOINT RightHandIndex3
                    {
                      OFFSET -2.2628 -0.552002 0.3989
                      CHANNELS 3 Zrotation Xrotation Yrotation
                      End Site
                      {
                        OFFSET -1.6102 -0.4807 0.2612
                      }
                    }
                  }
                }
                JOINT RightHandMiddle1
                {
                  OFFSET -8.9937 0.894989 0.2143
                  CHANNELS 3 Zrotation Xrotation Yrotation
                  JOINT RightHandMiddle2
                  {
                    OFFSET -4.0984 0.0113983 -0.0242
                    CHANNELS 3 Zrotation Xrotation Yrotation
                    JOINT RightHandMiddle3
                    {
                      OFFSET -2.2716 0.00691223 -0.0138001
                      CHANNELS 3 Zrotation Xrotation Yrotation
                      End Site
                      {
                        OFFSET -2.0404 -0.1441 0.0027
                      }
                    }
                  }
                }
                JOINT RightHandRing1
                {
                  OFFSET -8.5234 0.597198 -2.0164
                  CHANNELS 3 Zrotation Xrotation Yrotation
                  JOINT RightHandRing2
                  {
                    OFFSET -3.7188 -0.188309 -0.2328
                    CHANNELS 3 Zrotation Xrotation Yrotation
                    JOINT RightHandRing3
                    {
                      OFFSET -2.1191 -0.106598 -0.1332
                      CHANNELS 3 Zrotation Xrotation Yrotation
                      End Site
                      {
                        OFFSET -1.8737 -0.2304 -0.0886
                      }
                    }
                  }
                }
                JOINT RightHandPinky1
                {
                  OFFSET -7.9094 -0.601105 -3.4825
                  CHANNELS 3 Zrotation Xrotation Yrotation
                  JOINT RightHandPinky2
                  {
                    OFFSET -2.2874 -0.477005 -0.6314
                    CHANNELS 3 Zrotation Xrotation Yrotation
                    JOINT RightHandPinky3
                    {
                      OFFSET -1.6774 -0.349396 -0.4633
                      CHANNELS 3 Zrotation Xrotation Yrotation
                      End Site
                      {
                        OFFSET -1.4888 -0.4091 -0.3416
                      }
                    }
                  }
                }
                JOINT RightHandThumb1
                {
                  OFFSET -1.833 -1.38751 1.3896
                  CHANNELS 3 Zrotation Xrotation Yrotation
                  JOINT RightHandThumb2
                  {
                    OFFSET -3.41299 -1.12099 2.5732
                    CHANNELS 3 Zrotation Xrotation Yrotation
                    JOINT RightHandThumb3
                    {
                      OFFSET -2.24741 -0.804108 1.6192
                      CHANNELS 3 Zrotation Xrotation Yrotation
                      End Site
                      {
                        OFFSET -1.6527 -0.5689 1.1317
                      }
                    }
                  }
                }
              }
            }
          }
        }
      }
    }
  }
  JOINT RightUpLeg
  {
    OFFSET -9.1966 3.8861 -0.7581
    CHANNELS 3 Zrotation Xrotation Yrotation
    JOINT RightLeg
    {
      OFFSET -0.7359 -41.0265 0
      CHANNELS 3 Zrotation Xrotation Yrotation
      JOINT RightFoot
      {
        OFFSET 0 -40.2855 0
        CHANNELS 3 Zrotation Xrotation Yrotation
        JOINT RightToeBase
        {
          OFFSET 0 -5.6122 11.7359
          CHANNELS 3 Zrotation Xrotation Yrotation
          End Site
          {
            OFFSET 0 0 7.8731
          }
        }
      }
    }
  }
  JOINT LeftUpLeg
  {
    OFFSET 9.1965 3.8864 -0.7581
    CHANNELS 3 Zrotation Xrotation Yrotation
    JOINT LeftLeg
    {
      OFFSET 0.7359 -41.0268 0
      CHANNELS 3 Zrotation Xrotation Yrotation
      JOINT LeftFoot
      {
        OFFSET 0 -40.2855 0
        CHANNELS 3 Zrotation Xrotation Yrotation
        JOINT LeftToeBase
        {
          OFFSET 0 -5.6122 11.7359
          CHANNELS 3 Zrotation Xrotation Yrotation
          End Site
          {
            OFFSET 0 0 7.8731
          }
        }
      }
    }
  }
}
MOTION
Frames:	4
Frame Time:	0.0333333
5.84602e-005 68.8428 3.50346 0 0 -0 0 0 -0 0 0 -0 0 0 -0 0 0 -0 0 0 -0 0 0 -0 0 0 -0 0 0 -0 0 0 -0 0 0 -0 0 0 -0 0 0 -0 0 0 -0 -0.0146107 -8.87603e-005 -2.63497e-007 2.99804e-018 -2.42657e-020 -1.42182e-022 0 0 -0 -0.0187562 -0.001176 5.858e-005 5.06224e-018 3.88251e-019 1.21329e-020 0 0 -0 -0.012269 -0.00324817 0.000675346 -1.74678e-018 3.88251e-019 -0 0 0 -0 0 0 -0 0 0 -0 0 0 -0 0 0 -0 0 0 -0 0 0 -0 0 0 -0 0 0 -0 0 0 -0 0 0 -0 0.0149955 -9.10982e-005 2.64101e-007 -9.69331e-018 1.21329e-020 -4.7394e-023 0 0 -0 0.0189956 -0.00119102 -5.96516e-005 -5.41541e-019 0 2.42657e-020 0 0 -0 0.0122698 -0.00324857 -0.000673756 -2.00796e-019 0 -1.94126e-019 0 0 -0 0 0 -0 0 0 -0 3.39842 1.33031 -0.0637918 -5.65207e-008 0.834868 -0.000436188 -3.39935 -2.16518 -0.0642563 -8.89002e-024 -1.18485e-023 -1.48106e-024 -3.39844 1.35642 0.0640283 -3.18788e-007 0.782166 -0.000588827 3.39931 -2.13858 0.0634662 1.1399e-023 0 -0 
-0.0620027 17.7669 60.1815 -0 -66.6681 -0 -0.0907685 1.36098 -0.109221 -0.179017 2.72218 -0.216376 -0.179017 2.72216 -0.216376 6.03559e-006 31.8211 -4.23969e-006 6.38714e-008 -16.2026 2.99087e-007 -17.2367 -7.34534 10.253 -43.8928 5.84873 -31.6979 -14.0409 -7.48672 -83.8721 -30.3204 5.90683 18.0674 -1.05434e-006 -3.89837e-007 -8.86763e-007 2.98121e-008 8.83478e-008 -5.18914e-008 1.14378e-006 6.5488e-007 7.31089e-007 -1.05434e-006 -3.89837e-007 -8.86763e-007 -0.0146759 -8.92507e-005 4.88953e-007 1.49059e-007 4.41772e-007 -2.594e-007 -1.05434e-006 -3.89837e-007 -8.86763e-007 -0.0187694 -0.00117391 6.17456e-005 1.49057e-007 4.41781e-007 -2.59386e-007 -1.05434e-006 -3.89837e-007 -8.86763e-007 -0.0123009 -0.00325874 0.000673831 1.14213e-006 6.54351e-007 7.31219e-007 -1.05434e-006 -3.89837e-007 -8.86763e-007 2.98121e-008 8.83478e-008 -5.18914e-008 1.14378e-006 6.5488e-007 7.31089e-007 11.8429 -6.1142 -4.33455 44.9124 7.05793 20.0012 14.3085 -9.52908 64.8368 27.8903 13.252 6.94846 2.6205e-006 3.9038e-007 7.97425e-007 -2.38542e-015 -3.18055e-015 3.18055e-015 2.38542e-015 1.59028e-015 -0 2.6205e-006 3.9038e-007 7.97425e-007 0.0149745 -9.26451e-005 -8.67776e-007 2.62179e-006 3.90476e-007 7.97372e-007 2.6205e-006 3.9038e-007 7.97425e-007 0.0190163 -0.00118887 -6.07324e-005 4.77083e-015 -1.59028e-015 -0 2.6205e-006 3.9038e-007 7.97425e-007 0.0122313 -0.00323448 -0.000680271 -7.95139e-016 1.59028e-015 -0 2.6205e-006 3.9038e-007 7.97425e-007 -2.38542e-015 -3.18055e-015 3.18055e-015 2.38542e-015 1.59028e-015 -0 -1.74228 -10.7328 3.61932 1.4403 32.5286 -2.17143 -3.80009 11.0878 -5.93775 1.22088e-006 8.56302e-008 -3.74217e-007 9.31314 2.21938 -4.37313 1.37653 6.02517 0.093815 5.0553 9.55896 6.16865 5.42313e-008 2.506e-006 -1.03056e-006 
-0.0941633 -4.90952 82.685 -180 -83.3313 -180 -0.134828 1.97322 -0.155046 -0.264544 3.94679 -0.305715 -0.264544 3.9468 -0.305715 4.57064e-006 46.2828 -5.15723e-006 -1.74952e-007 -23.9596 -1.69811e-007 -24.129 -10.4613 14.9986 -61.7072 6.93488 -46.1294 -19.1786 25.2766 -97.8383 -45.4431 8.08412 26.3353 1.3785e-007 -8.62706e-008 -2.75772e-007 9.18998e-008 -5.75137e-008 -1.83848e-007 4.59499e-007 -2.87569e-007 -9.19241e-007 1.3785e-007 -8.62706e-008 -2.75772e-007 -0.0146312 -8.89302e-005 -1.19972e-006 4.59497e-007 -2.87451e-007 -9.19278e-007 1.3785e-007 -8.62706e-008 -2.75772e-007 -0.0187691 -0.00117805 5.40334e-005 4.59488e-007 -2.87419e-007 -9.19292e-007 1.3785e-007 -8.62706e-008 -2.75772e-007 -0.012295 -0.0032557 0.000678917 4.5947e-007 -2.87473e-007 -9.19284e-007 1.3785e-007 -8.62706e-008 -2.75772e-007 9.18998e-008 -5.75137e-008 -1.83848e-007 4.59499e-007 -2.87569e-007 -9.19241e-007 16.8674 -8.83759 -6.32467 63.5487 9.52644 29.2136 23.8353 0.708893 91.2078 39.4671 19.0786 10.3753 -5.29669e-031 9.54166e-015 3.18055e-015 3.18055e-015 1.59028e-014 9.54166e-015 6.36111e-015 1.59028e-014 3.18055e-015 -5.29669e-031 9.54166e-015 3.18055e-015 0.0149993 -8.98465e-005 2.48295e-006 -6.36111e-015 2.8625e-014 6.36111e-015 -5.29669e-031 9.54166e-015 3.18055e-015 0.0189927 -0.00119001 -6.2847e-005 -3.18055e-015 0 9.54166e-015 -5.29669e-031 9.54166e-015 3.18055e-015 0.012314 -0.00326045 -0.00067873 -0 -3.18055e-015 -0 -5.29669e-031 9.54166e-015 3.18055e-015 3.18055e-015 1.59028e-014 9.54166e-015 6.36111e-015 1.59028e-014 3.18055e-015 -3.50613 -15.7535 5.14152 2.34895 46.252 -3.40197 -3.08338 17.1036 -8.63436 -1.83658e-007 -2.66726e-006 1.3171e-007 15.0635 2.84751 -6.07261 2.02606 8.19343 0.142705 5.16991 14.5751 8.7996 2.01715e-006 -5.06008e-007 -1.47256e-006 
-0.0863944 0.197796 77.8415 -180 -89.9981 -180 -0.124865 1.83719 -0.145049 -0.245264 3.67468 -0.286311 -0.245264 3.67468 -0.286311 2.93569e-006 43.3858 -2.34707e-006 -1.25175e-008 -23.2713 3.56645e-007 -22.6436 -9.78469 13.9335 -57.8203 6.81452 -42.919 -18.4897 16.9027 -96.7224 -42.6559 7.6398 24.4883 -4.00388e-006 1.10185e-006 1.54364e-006 2.89393e-006 3.70099e-010 1.48903e-006 -3.31016e-006 4.12961e-007 -3.51782e-007 -4.00388e-006 1.10185e-006 1.54364e-006 -0.014618 -8.78283e-005 -7.6124e-008 -3.3103e-006 4.13005e-007 -3.51727e-007 -4.00388e-006 1.10185e-006 1.54364e-006 -0.0188068 -0.00118175 6.0471e-005 -3.31034e-006 4.1301e-007 -3.51679e-007 -4.00388e-006 1.10185e-006 1.54364e-006 -0.0121994 -0.00323146 0.000675162 -3.31028e-006 4.12988e-007 -3.51638e-007 -4.00388e-006 1.10185e-006 1.54364e-006 2.89393e-006 3.70099e-010 1.48903e-006 -3.31016e-006 4.12961e-007 -3.51782e-007 15.7674 -8.23473 -5.87912 59.4837 9.03583 27.1524 22.1059 -2.42436 85.1629 37.2453 17.8412 9.57563 -3.53113e-031 -3.18055e-015 -6.36111e-015 3.44539e-006 2.11963e-007 -5.8699e-007 4.77083e-015 0 -0 -3.53113e-031 -3.18055e-015 -6.36111e-015 0.0150428 -8.93718e-005 -7.63719e-007 7.95139e-015 0 -3.18055e-015 -3.53113e-031 -3.18055e-015 -6.36111e-015 0.0189972 -0.00118704 -5.69154e-005 -9.54166e-015 -3.18055e-015 -9.54166e-015 -3.53113e-031 -3.18055e-015 -6.36111e-015 0.0123422 -0.00326688 -0.000681609 -2.2041e-006 8.54672e-007 -1.3207e-007 -3.53113e-031 -3.18055e-015 -6.36111e-015 3.44539e-006 2.11963e-007 -5.8699e-007 4.77083e-015 0 -0 -3.37734 -14.6376 4.3171 2.11144 43.1715 -3.10296 -3.62968 15.7832 -7.52627 -1.1657e-007 -1.37937e-007 1.89424e-006 13.8458 2.73833 -5.09188 1.87926 7.46437 0.123767 5.37553 13.4933 7.57683 -3.18055e-015 -6.36111e-015 -1.59028e-015 
